<?xml version="1.0" standalone="no"?><!DOCTYPE svg PUBLIC "-//W3C//DTD SVG 1.1//EN" "http://www.w3.org/Graphics/SVG/1.1/DTD/svg11.dtd"><svg t="1778462090888" class="icon" viewBox="0 0 1024 1024" version="1.1" xmlns="http://www.w3.org/2000/svg" p-id="9406" xmlns:xlink="http://www.w3.org/1999/xlink" width="256" height="256"><path d="M441.68533333 161.90577778c97.62133333 0 186.25422222 37.77422222 251.22133334 99.10044444-30.83377778 3.86844445-60.75733333 12.97066667-88.17777778 27.07911111-47.67288889-32.768-104.67555555-50.40355555-163.04355556-50.40355555-155.98933333 0-282.85155555 122.99377778-282.85155555 274.20444444s126.86222222 274.20444445 282.85155555 274.20444445c58.48177778 0 115.48444445-17.52177778 163.04355556-50.40355556 27.53422222 14.10844445 57.344 23.32444445 88.17777778 27.19288889-65.08088889 61.21244445-153.6 99.10044445-251.22133334 99.10044445-198.99733333 0-361.01688889-157.01333333-361.01688888-350.09422223 0-192.85333333 161.90577778-349.98044445 361.01688888-349.98044444M943.33155555 512c0 94.66311111-64.85333333 174.87644445-153.82755555 201.15911111 37.54666667-60.75733333 57.344-130.27555555 57.344-201.15911111 0.11377778-70.88355555-19.68355555-140.40177778-57.344-201.15911111C878.36444445 337.12355555 943.33155555 417.33688889 943.33155555 512m-218.90844444 0c0-75.43466667-31.63022222-143.92888889-82.71644444-193.64977778 26.73777778-11.03644445 55.52355555-16.72533333 84.65066666-16.72533333 1.25155555 0 2.50311111 0.11377778 3.75466667 0.22755556 47.104 60.52977778 72.59022222 134.25777778 72.47644445 210.14755555 0.11377778 75.776-25.37244445 149.61777778-72.47644445 210.14755555-1.25155555 0-2.50311111 0.22755555-3.75466667 0.22755556-30.03733333 0-58.59555555-5.91644445-84.65066666-16.72533333 51.2-49.72088889 82.71644445-118.21511111 82.71644444-193.64977778M564.45155555 710.31466667c-37.09155555 21.73155555-79.53066667 33.10933333-122.88 33.10933333-131.52711111 0-238.592-103.76533333-238.592-231.424 0-127.54488889 107.06488889-231.424 238.592-231.424 43.23555555 0 85.78844445 11.37777778 122.88 33.10933333-60.30222222 46.42133333-99.10044445 117.98755555-99.10044444 198.31466667 0 80.32711111 38.79822222 151.89333333 99.10044444 198.31466667M509.61066667 512c0-70.88355555 36.40888889-133.46133333 91.93244444-171.57688889 48.35555555 42.32533333 78.73422222 103.65155555 78.73422222 171.57688889 0 68.03911111-30.37866667 129.25155555-78.73422222 171.69066667-55.52355555-38.11555555-91.93244445-100.80711111-91.93244444-171.69066667m-67.92533334 392.87466667c124.58666667 0 236.20266667-54.84088889 310.61333334-140.97066667C884.16711111 751.27466667 987.47733333 643.072 987.47733333 512s-103.31022222-239.27466667-235.17866666-251.904c-74.41066667-86.12977778-186.02666667-140.97066667-310.61333334-140.97066667-223.45955555 0-405.16266667 176.24177778-405.16266666 392.87466667s181.70311111 392.87466667 405.16266666 392.87466667" fill="#FFAE5F" p-id="9407"></path></svg>