<?xml version="1.0" standalone="no"?><!DOCTYPE svg PUBLIC "-//W3C//DTD SVG 1.1//EN" "http://www.w3.org/Graphics/SVG/1.1/DTD/svg11.dtd"><svg t="1778057481746" class="icon" viewBox="0 0 1024 1024" version="1.1" xmlns="http://www.w3.org/2000/svg" p-id="5012" xmlns:xlink="http://www.w3.org/1999/xlink" width="256" height="256"><path d="M0 256m32 0l960 0q32 0 32 32l0 448q0 32-32 32l-960 0q-32 0-32-32l0-448q0-32 32-32Z" fill="#030C1F" p-id="5013"></path><path d="M133.934 635.15v-109.366h120.786v-34.61H133.934v-68.526h128.054v-34.61H93.44v247.112h40.494z m440.808 0v-109.366h120.786v-34.61h-120.786v-68.526h128.054v-34.61h-168.548v247.112h40.494z m165.548 0l22.496-61.952h103.482l22.496 61.952h43.262l-94.482-247.112h-46.032l-94.484 247.112h43.262z m113.866-95.176H774.9l39.108-108.328h1.384l38.764 108.328zM390.072 376.526c69.64 0 126.18 55.74 126.18 124.6 0 46.978-26.564 89.28-67.966 110.572a14.42 14.42 0 0 1-13.19-25.648c31.916-16.414 52.314-48.9 52.314-84.924 0-52.84-43.534-95.76-97.34-95.76-53.802 0-97.338 42.92-97.338 95.76 0 36.832 21.328 69.922 54.36 85.944a14.42 14.42 0 0 1-12.588 25.95c-42.846-20.782-70.612-63.866-70.612-111.894 0-68.86 56.538-124.6 126.18-124.6z" fill="#0CF1F2" p-id="5014"></path><path d="M390.072 429.656c39.82 0 72.102 32.28 72.102 72.102 0 34.884-24.77 63.98-57.682 70.66v95.178a14.42 14.42 0 0 1-28.824 0.72l-0.016-0.72V572.42c-32.912-6.68-57.684-35.78-57.684-70.66 0-39.822 32.282-72.104 72.104-72.104z m0 28.84c-23.894 0-43.262 19.37-43.262 43.262 0 23.894 19.368 43.262 43.26 43.262 23.894 0 43.264-19.368 43.264-43.26 0-23.894-19.37-43.264-43.262-43.264z" fill="#4599FF" p-id="5015"></path></svg>