<svg xmlns="http://www.w3.org/2000/svg" viewBox="0 0 128 128"><path d="M52.8,45.5c-6-5.7-11.8-11.4-17.5-17.3-1.6-1.7-2.4-1.3-3.7.3-5.9,7.6-5.5,18.5,1.5,25.5,15.5,15.7,31.4,30.9,47.3,46.1,1.3,1.2,1.9.8,2.8-.2,2.9-3.7,4.5-7.9,4.5-12.5,0-5.5-2-10.1-5.9-13.9-9.8-9.3-19.5-18.6-29-27.9h0ZM91.1,36.4c-6.4-6.4-12.7-12.7-19.2-18.9-4.1-4-9.2-5.7-14.5-6.2-5,0-9,1.5-12.6,4-2,1.3-1.9,2.2-.2,3.9,10.7,10.4,21.3,21.1,32.4,31.2,4.7,4.3,10.7,4.5,14.8.4,4-4,3.7-10-.7-14.4h0ZM9.9,53.7C4.4,53.7,0,58,0,63.5s4.3,9.8,9.7,10c5.6,0,10.2-4.5,10.2-9.9,0-5.5-4.6-9.8-10-9.8ZM70.9,109.1c-1.9-1.5-3.8-3.1-5.6-4.9-9.6-9.4-19.2-19-28.8-28.4-4.4-4.3-10.5-4.3-14.5-.3-4,4.1-4,9.8.4,14.1,7.1,7.2,14.2,14.2,21.5,21.2,3.8,3.7,8.5,5.5,14.4,5.5,4.2.2,8.5-1.8,12.4-4.1,1.4-.8,1.8-1.8.2-3.1h0ZM121.2,102.6c-1.2,0-2.4,0-3.6,0-1.3,0-2.5-.6-2.4-2.1,0-1.4,1.1-2.1,2.4-2.1,2.1,0,4.1,0,6.2,0,1.5,0,2.4-.2,2.4-2.1s-.5-2.6-2.4-2.4c-2.4,0-4.8,0-7.2,0-3.7.2-6,2.7-6.1,6.3,0,3.8,1.9,6.1,5.7,6.6,1.4.2,2.8,0,4.2.2,1.8,0,3.3.6,3.3,2.8s-1.7,2.6-3.4,2.7c-2.3,0-4.6,0-6.9,0-1.5,0-2.4.2-2.4,2.1s.7,2.2,2.3,2.1c1.3,0,2.6,0,3.9,0h3.9c4.3-.2,6.9-2.8,6.9-7,0-4.2-2.6-7-6.8-7.1h0ZM108,105.2v-4.2c-.2-4.5-2.8-7.1-7.5-7.2-5.3-.2-8.3,2.1-8.6,6.8-.2,3.1,0,6.3,0,9.3,0,3.1,1.7,5.6,4.8,6.3,6.4,1.3,11.8-.4,11.2-8.5v-2.6h0ZM103.9,108.3c0,2.9-.9,4.4-4.1,4.3-3.3,0-3.7-1.9-3.6-4.4s0-5,0-7.5,1.3-3,3.4-3,4,.2,4.3,2.8c0,1.5,0,3,0,4.5h0c0,1.1,0,2.2,0,3.3h0Z" fill="#0060fe"/></svg>