<?xml version="1.0" standalone="no"?><!DOCTYPE svg PUBLIC "-//W3C//DTD SVG 1.1//EN" "http://www.w3.org/Graphics/SVG/1.1/DTD/svg11.dtd"><svg t="1778553157961" class="icon" viewBox="0 0 1024 1024" version="1.1" xmlns="http://www.w3.org/2000/svg" p-id="5526" xmlns:xlink="http://www.w3.org/1999/xlink" width="256" height="256"><path d="M916.386987 242.517333a107.818667 107.818667 0 0 0-104.405334 80.853334H688.37632a107.776 107.776 0 0 0-106.325333 90.026666l-4.394667 26.624a53.888 53.888 0 0 1-53.162667 45.013334h-42.709333a107.818667 107.818667 0 0 0-208.768 0H212.34432a107.818667 107.818667 0 1 0 0 53.930666h60.672a107.818667 107.818667 0 0 0 208.810667 0h42.666666a53.888 53.888 0 0 1 53.205334 45.013334l4.394666 26.581333a107.776 107.776 0 0 0 106.325334 90.069333h15.786666a107.818667 107.818667 0 1 0 0-53.888h-15.786666a53.888 53.888 0 0 1-53.162667-45.056l-4.394667-26.581333A107.52 107.52 0 0 0 595.789653 512a107.52 107.52 0 0 0 34.986667-63.146667l4.437333-26.538666a53.888 53.888 0 0 1 53.162667-45.056h123.562667a107.818667 107.818667 0 1 0 104.405333-134.741334m0 53.888a53.888 53.888 0 0 1 53.888 53.888 53.888 53.888 0 0 1-53.888 53.930667A53.888 53.888 0 0 1 862.45632 350.293333a53.888 53.888 0 0 1 53.930667-53.888m-808.448 161.706667A53.888 53.888 0 0 1 161.869653 512a53.888 53.888 0 0 1-53.930666 53.888A53.888 53.888 0 0 1 54.050987 512a53.888 53.888 0 0 1 53.888-53.888m269.482666 0A53.888 53.888 0 0 1 431.309653 512a53.888 53.888 0 0 1-53.888 53.888A53.888 53.888 0 0 1 323.57632 512a53.888 53.888 0 0 1 53.888-53.888m431.146667 161.706667a53.888 53.888 0 0 1 53.930666 53.888 53.888 53.888 0 0 1-53.888 53.888 53.888 53.888 0 0 1-53.930666-53.888 53.888 53.888 0 0 1 53.888-53.930667" p-id="5527" fill="#ee4f27"></path></svg>