<?xml version="1.0" standalone="no"?><!DOCTYPE svg PUBLIC "-//W3C//DTD SVG 1.1//EN" "http://www.w3.org/Graphics/SVG/1.1/DTD/svg11.dtd"><svg t="1778057985587" class="icon" viewBox="0 0 4198 1024" version="1.1" xmlns="http://www.w3.org/2000/svg" p-id="7919" xmlns:xlink="http://www.w3.org/1999/xlink" width="1049.5" height="256"><path d="M250.49088 716.8c-54.272-50.8416-124.672-51.2512-155.904-29.0816-4.608 3.328-8.6016 7.424-11.8784 12.032a467.8144 467.8144 0 0 1-41.8816-166.8608 465.92 465.92 0 0 1 183.0912-401.408 429.056 429.056 0 0 1 145.664-29.696c165.888-3.1744 278.6304 108.0832 367.8208 191.5904 54.272 50.8416 124.7232 51.2 155.9552 29.0304 5.0688-3.584 9.728-8.704 13.7216-14.6944 24.5248 52.2752 38.912 108.7488 42.3424 166.4a465.92 465.92 0 0 1-189.2352 406.016 427.6736 427.6736 0 0 1-141.824 28.2624C452.42368 911.5648 339.63008 800.256 250.43968 716.8z m738.5088-245.248a491.1104 491.1104 0 0 0-87.2448-252.16C825.97888 101.12 657.01888 4.0448 507.97568 1.3312 381.97248-8.6528 170.87488 44.7488 61.71648 260.096a2.2528 2.2528 0 0 1-0.256 0.512 508.2624 508.2624 0 0 0-60.2112 274.8416 507.6992 507.6992 0 0 0 71.9872 231.424c1.1776 3.0208 2.56 5.9392 4.096 8.7552l0.9216 1.536c1.28 2.7136 2.816 5.4784 4.608 8.3968 27.392 44.544 68.096 86.3232 116.2752 121.4464a490.6496 490.6496 0 0 0 146.2272 76.4928c44.6464 15.4624 90.5216 24.576 134.6048 25.344 123.904 9.7792 330.1376-41.6768 440.7296-248.32a508.3136 508.3136 0 0 0 68.3008-289.024z m-421.7344-167.7312c0-40.192-33.3824-51.6608-72.8576-51.6608-39.424 0-71.424 11.4688-71.424 51.6608l-0.3584 116.736H311.67488c-39.424 0-50.688 32.5632-50.688 72.704 0 40.192 11.264 72.704 50.688 72.704H422.98368v114.688c0 40.192 34.0992 55.4496 73.5232 55.4496 39.4752 0 70.7584-14.336 70.4-56.1664l-0.3584-112.896h125.2864c39.424 0 50.0224-33.5872 50.0224-73.728 0-40.192-10.5984-72.704-50.0224-72.704h-125.2864l0.7168-116.7872z m200.192 665.2928c190.976 56.0128 315.6992-16.0256 315.6992-16.0256-112.0768-4.9664-170.1888-38.2976-200.3456-73.728a589.6192 589.6192 0 0 1-115.3536 89.7536zM2235.87328 101.7344l268.4416 666.9312c21.6576 53.5552 41.2672 88.32 58.88 104.2432 17.664 15.9232 42.1888 24.9344 73.6768 26.88V921.6h-304.3328v-21.8112c30.72-1.5872 51.5072-6.912 62.3104-15.9744a41.6256 41.6256 0 0 0 16.1792-33.0752c0-17.3056-7.5776-44.6464-22.7328-82.1248l-41.728-101.9904h-309.0432l-46.8992 113.2544c-12.9024 31.0784-19.3536 54.3232-19.3536 69.6832 0 12.1856 5.632 22.9376 16.7936 32.2048 11.1616 9.216 35.328 15.2576 72.5504 18.0224V921.6h-265.7792v-21.8112c32.256-5.9392 53.1456-13.568 62.6176-23.04 19.3024-18.944 40.7552-57.344 64.3072-115.2l271.36-659.8144h42.752z m-40.96 183.7056l-134.2464 324.3008h265.1136l-130.8672-324.3008zM1795.91168 163.7888c16.2304-26.368 39.424-39.5776 69.6832-39.5776H1894.47168V102.4h-271.9232v21.8112h28.8768c29.0816 0 41.6256 8.704 56.32 26.0096 10.5984 12.5952 15.872 43.8784 15.872 93.7984v338.6368c0 84.992-11.9296 143.0016-26.4192 178.688-14.5408 35.584-37.0176 55.1424-76.6976 77.9776-39.6288 22.8352-75.2128 34.2528-125.44 34.2528-39.2704 0-72.3968-7.2704-99.4304-21.8112-26.9824-14.592-47.6672-33.0752-62.0544-55.5008-14.336-22.4256-24.2176-41.8304-29.696-81.92a804.352 804.352 0 0 1-8.192-106.9056V244.0192c0-44.8512 4.7104-74.3424 14.1312-88.5248 13.6192-20.8384 36.2496-31.2832 67.9424-31.2832h29.4912V102.4H1075.27168v21.8112h28.8768c29.0816 0 50.1248 7.68 63.1808 23.04 13.0048 15.36 19.5584 47.616 19.5584 96.768v327.4752c0 96.3584 5.9904 162.048 18.1248 197.12 17.2544 50.0224 49.664 92.8768 92.3136 122.112 43.4176 30.3104 107.0592 45.4656 190.9248 45.4656 77.056 0 137.9328-15.872 182.6816-47.5136 44.7488-31.6416 74.752-69.632 90.112-113.92 15.2576-44.2368 22.9376-106.496 22.9376-186.7776V248.7296c0-44.4416 3.9936-72.704 11.9296-84.992zM3023.79008 102.4v21.6064h-26.6752c-18.432 0.0512-36.6592 4.7104-52.8896 13.4656a50.688 50.688 0 0 0-24.9856 28.0576c-4.608 12.4928-6.9632 38.1952-6.9632 77.1584v269.1072c26.4192-24.8832 258.8672-271.4112 288.1536-312.9856 10.752-15.3088 15.6672-29.184 15.6672-40.8576 0-9.0112-4.096-16.896-12.1856-23.7056-8.192-6.8096-21.9136-10.24-41.2672-10.24h-18.0224V102.4h289.28v21.6064a152.576 152.576 0 0 0-43.8272 6.4512 218.9312 218.9312 0 0 0-53.76 25.4464c-22.0672 13.9776-44.9536 32-74.3424 59.2896-5.632 5.2224-85.0944 94.1568-238.1824 266.752l290.4576 290.6112c47.616 47.9232 79.2064 80.9472 106.752 97.8944 27.4944 16.896 52.5824 27.1872 86.272 29.5424V921.6h-344.6272v-21.6064c22.4256 0 38.6048-3.7888 48.4864-11.4176 9.8816-7.5776 14.848-16.0768 14.848-25.4464 0-9.3184-1.8432-17.7152-5.5296-25.088-3.7376-7.424-15.8208-21.248-36.3008-41.5232l-271.872-270.6944v255.488c0 40.1408 2.56 66.6624 7.5776 79.5136 3.8912 9.728 11.9808 18.1248 24.3712 25.1392 16.64 9.3696 34.304 14.0288 52.8896 14.0288h26.624V921.6H2688.07168v-21.6064h27.8528c32.5632 0 56.2176-9.5744 70.912-28.672 9.2672-12.4928 13.9264-42.496 13.9264-90.0096V242.688c0-40.1408-2.56-66.816-7.5776-80.0768-3.8912-9.3696-11.776-17.5616-23.7568-24.576a109.6704 109.6704 0 0 0-53.504-14.0288H2688.07168V102.4h335.7184z m1082.112 0l8.5504 173.6704h-22.3232c-7.9872-41.6768-16.896-66.816-26.6752-82.432-9.728-15.5648-24.1664-27.4944-43.2128-35.6864-15.3088-5.8368-42.24-8.7552-80.7936-8.7552h-213.0432v326.0416h170.7008c44.288 0 73.8816-6.8608 88.7808-20.48 19.8144-17.92 30.8736-39.2704 33.1776-84.48h21.1968v275.968h-21.1968c-5.3248-38.6048-10.6496-63.3344-16.0256-74.24a72.3456 72.3456 0 0 0-33.792-32.1536c-15.6672-7.8336-39.7312-11.7248-72.192-11.7248H3728.45568v244.4288c0 39.2192 1.536 60.5184 4.608 64 4.0448 9.6768 11.6224 22.272 37.0688 24.8832h154.2144c43.9296 0 75.776-3.1232 95.6928-9.4208 19.8144-6.1952 38.912-18.432 57.2416-36.7616 23.6544-24.1664 47.9232-43.7248 72.704-92.416h22.9376L4105.85088 921.6h-432.9472l-54.4768-51.2V240.4352c0-50.2784-4.9664-81.2544-14.848-92.9792-13.7728-15.616-36.7104-23.3984-68.7616-23.3984H3507.27168V102.4h598.6304z" fill="#28cf33" p-id="7920"></path></svg>