<?xml version="1.0" standalone="no"?><!DOCTYPE svg PUBLIC "-//W3C//DTD SVG 1.1//EN" "http://www.w3.org/Graphics/SVG/1.1/DTD/svg11.dtd"><svg t="1778461699097" class="icon" viewBox="0 0 1024 1024" version="1.1" xmlns="http://www.w3.org/2000/svg" p-id="5651" xmlns:xlink="http://www.w3.org/1999/xlink" width="256" height="256"><path d="M834.37037 847.644444c-32.237037 32.237037-70.162963 60.681481-109.985185 85.333334 182.044444 53.096296 299.614815-15.17037 299.614815-15.170371-106.192593-3.792593-161.185185-36.02963-189.62963-70.162963z m-180.148148-434.251851h-117.57037l3.792592-109.985186c0-37.925926-32.237037-49.303704-68.266666-49.303703-37.925926 0-68.266667 11.377778-68.266667 49.303703l-3.792592 109.985186h-104.296297c-37.925926 0-47.407407 30.340741-47.407407 68.266666s11.377778 68.266667 47.407407 68.266667h104.296297l3.792592 108.088889c0 37.925926 32.237037 53.096296 70.162963 53.096296s66.37037-13.274074 66.37037-53.096296l-3.792592-106.192593h117.57037c37.925926 0 47.407407-32.237037 47.407408-70.162963s-9.481481-68.266667-47.407408-68.266666z m216.177778 322.37037c47.407407-79.644444 70.162963-174.459259 64.474074-273.066667-5.688889-91.022222-36.02963-170.666667-83.437037-238.933333C781.274074 109.985185 620.088889 18.962963 479.762963 17.066667 360.296296 7.585185 161.185185 56.888889 58.785185 261.688889 17.066667 339.437037-3.792593 428.562963 1.896296 523.377778c5.688889 79.644444 28.444444 155.496296 68.266667 219.97037 1.896296 1.896296 1.896296 5.688889 3.792593 7.585185v1.896297c1.896296 0 1.896296 3.792593 3.792592 5.688889 26.548148 41.718519 64.474074 81.540741 109.985185 115.674074 41.718519 32.237037 87.22963 56.888889 138.42963 72.059259 41.718519 15.17037 85.333333 22.755556 127.051852 24.651852 117.57037 9.481481 312.888889-39.822222 417.185185-235.140741z m-151.703704 113.777778c-41.718519 15.17037-87.22963 26.548148-134.637037 26.548148-157.392593 3.792593-263.585185-102.4-347.022222-182.044445-51.2-47.407407-117.57037-49.303704-147.911111-28.444444l-11.377778 11.377778c-22.755556-47.407407-36.02963-102.4-39.822222-157.392593-9.481481-153.6 60.681481-293.925926 172.562963-379.259259 41.718519-17.066667 91.022222-26.548148 138.42963-28.444445 157.392593-3.792593 263.585185 102.4 347.022222 182.044445 51.2 47.407407 117.57037 49.303704 147.911111 28.444444 5.688889-3.792593 9.481481-7.585185 13.274074-13.274074 22.755556 47.407407 36.02963 100.503704 39.822222 157.392593 9.481481 153.6-62.577778 297.718519-178.251852 383.051852z" fill="#35ce63" p-id="5652"></path></svg>