<?xml version="1.0" standalone="no"?><!DOCTYPE svg PUBLIC "-//W3C//DTD SVG 1.1//EN" "http://www.w3.org/Graphics/SVG/1.1/DTD/svg11.dtd"><svg t="1778462010910" class="icon" viewBox="0 0 1024 1024" version="1.1" xmlns="http://www.w3.org/2000/svg" p-id="9187" xmlns:xlink="http://www.w3.org/1999/xlink" width="256" height="256"><path d="M512 512m-512 0a512 512 0 1 0 1024 0 512 512 0 1 0-1024 0Z" fill="#EEF4F7" p-id="9188"></path><path d="M851.382857 648.484571a201.325714 201.325714 0 1 1-387.657143-76.580571A181.686857 181.686857 0 1 1 394.422857 256a169.161143 169.161143 0 1 1 271.908572 191.817143 201.398857 201.398857 0 0 1 185.051428 200.667428z" fill="#BC2B31" p-id="9189"></path><path d="M647.314286 473.6a174.738286 174.738286 0 1 1-174.994286 174.72A174.811429 174.811429 0 0 1 647.314286 473.6z m-100.754286-2.614857a142.628571 142.628571 0 0 1-48.091429-8.338286 155.172571 155.172571 0 1 1-88.868571-174.08 142.628571 142.628571 0 1 1 136.96 182.345143z" fill="#FFFFFF" p-id="9190"></path><path d="M647.862857 815.689143a165.906286 165.906286 0 1 1 166.034286-165.906286 165.869714 165.869714 0 0 1-166.034286 165.906286z m-104.411428-354.578286a129.938286 129.938286 0 0 1-61.805715-15.506286 138.496 138.496 0 1 1-68.022857-133.485714 131.072 131.072 0 1 1 129.828572 148.992z" fill="#E79193" p-id="9191"></path><path d="M339.748571 318.701714a115.986286 115.986286 0 1 1-115.931428 115.986286 115.986286 115.986286 0 0 1 115.931428-115.986286z m307.565715 181.540572a151.296 151.296 0 1 1-151.222857 151.296 151.387429 151.387429 0 0 1 151.222857-151.296z m-100.022857-277.851429a106.660571 106.660571 0 1 1-106.605715 106.642286 106.624 106.624 0 0 1 106.605715-106.642286z" fill="#FFFFFF" p-id="9192"></path></svg>