<svg xmlns="http://www.w3.org/2000/svg" viewBox="0 0 128 128"><path d="M0,0h128v128H0V0Z" fill="#f7971d"/><path d="M27.5,38.7l8.7,9c14.9-15.1,39.2-15.2,54.3-.2,0,0,.1.1.2.2l8.7-9c-19.8-19.9-52-20-71.9-.2,0,0-.1.1-.2.2" fill="#fac230"/><path d="M63.4,66.3c-4.7,0-8.4,3.8-8.4,8.4s3.8,8.4,8.4,8.4h0c4.7,0,8.4-3.8,8.4-8.4s-3.8-8.4-8.4-8.4M11.5,22.9l9,8.7c23.7-23.8,62.2-23.8,86,0,0,0,0,0,0,0l9-8.7c-28.5-28.7-74.8-28.9-103.5-.4-.1.1-.3.3-.4.4M43.3,54.5l8.7,8.8c6.2-6.4,16.4-6.5,22.8-.2,0,0,.2.2.2.2l8.7-8.8c-11.1-11.2-29.2-11.2-40.4,0,0,0,0,0,0,0" fill="#fff"/><path d="M94.6,52.1c12.6,17.2,8.9,41.4-8.3,54-17.2,12.6-41.4,8.9-54-8.3-10-13.6-10-32.1,0-45.7l-8.8-9c-17.5,22.1-13.8,54.2,8.2,71.8,22.1,17.5,54.2,13.8,71.8-8.2,14.8-18.6,14.8-44.9,0-63.5l-8.8,9Z"/></svg>