<?xml version="1.0" standalone="no"?><!DOCTYPE svg PUBLIC "-//W3C//DTD SVG 1.1//EN" "http://www.w3.org/Graphics/SVG/1.1/DTD/svg11.dtd"><svg t="1778462147328" class="icon" viewBox="0 0 1238 1024" version="1.1" xmlns="http://www.w3.org/2000/svg" p-id="9668" xmlns:xlink="http://www.w3.org/1999/xlink" width="309.5" height="256"><path d="M0 81.449195s63.558621 22.598621 138.887356 159.602759c103.106207 178.905747 107.814253 398.771494 395.005058 443.968736 416.662069 22.127816 384.647356-372.877241 384.647356-372.877242s16.948966 314.026667-370.994023 315.909885c-278.716322-24.481839-277.303908-333.80046-397.829885-475.512643 148.774253-23.069425 259.884138-110.168276 259.884138-110.168276s-124.292414 42.843218-234.931494 53.200919c-92.277701 8.945287-174.668506-14.124138-174.668506-14.124138z" fill="#01ACFE" p-id="9669"></path><path d="M1203.376552 603.571494s-63.558621-22.598621-138.887357-159.602758c-103.106207-178.434943-107.814253-398.30069-395.005057-443.027127-416.191264-21.657011-384.176552 372.406437-384.176552 372.406437s-16.478161-313.555862 370.523219-315.43908c278.716322 24.481839 277.303908 333.329655 397.829885 475.041839-149.245057 23.069425-259.884138 109.697471-259.884138 109.697471s123.821609-42.843218 234.931494-53.20092c92.277701-8.945287 174.668506 14.124138 174.668506 14.124138z" fill="#01ACFE" p-id="9670"></path><path d="M597.921839 197.737931c-79.095172 0-143.124598 64.029425-143.124598 143.124598s64.029425 143.124598 143.124598 143.124597 143.124598-64.029425 143.124598-143.124597c0-78.624368-64.029425-143.124598-143.124598-143.124598z m0 227.869425c-46.609655 0-84.274023-37.664368-84.274023-84.274023s37.664368-84.274023 84.274023-84.274023 84.274023 37.664368 84.274023 84.274023-37.664368 84.274023-84.274023 84.274023z m-433.611034 341.333334l-127.117242 181.25977h79.095173c6.12046 0 11.29931-0.470805 16.007356-1.883219 4.708046-0.941609 8.474483-3.295632 12.240919-6.120459s6.591264-7.062069 9.416092-12.24092 5.178851-11.770115 8.003679-20.244598l4.708046 0.94161-9.416092 51.317701H0v-5.178851l123.821609-176.080919h-61.675402c-8.003678 0-14.124138 0.470805-18.832184 1.883218-4.708046 0.941609-8.003678 3.295632-10.828506 6.12046s-4.708046 6.591264-6.12046 11.29931c-1.412414 4.708046-2.824828 10.357701-3.766436 17.41977h-5.178851l3.766437-48.022069h143.124598v-0.470804z m83.332413 58.850574c8.945287 0 17.41977 1.883218 24.952644 5.178851 7.532874 3.295632 14.594943 8.474483 19.773793 14.124138 5.649655 6.12046 9.886897 13.182529 13.182529 21.186207 3.295632 8.003678 4.708046 16.948966 4.708046 25.894253 0 6.12046-0.941609 11.770115-2.354023 17.890574-1.412414 5.649655-3.766437 11.770115-6.12046 17.890575-5.649655 12.24092-13.182529 21.186207-23.069425 27.306667s-20.715402 8.945287-32.956322 8.945287c-8.945287 0-17.41977-1.883218-24.952644-5.649655-7.532874-3.766437-14.124138-8.474483-19.302988-15.065747-5.649655-6.12046-9.416092-13.653333-12.711724-21.657012s-4.708046-16.948966-4.708046-25.894253c0-12.24092 2.824828-24.011034 8.945287-35.781149 2.824828-5.649655 6.591264-10.828506 10.357701-15.536552 4.237241-4.237241 8.474483-8.003678 13.182529-10.828505s9.416092-5.178851 14.594942-6.591265c5.649655-0.941609 10.828506-1.412414 16.478161-1.412414z m-4.237241 8.945288c-4.237241 0-8.474483 0.941609-12.24092 2.824827-3.766437 1.883218-7.532874 4.708046-10.357701 8.474483s-5.178851 8.945287-7.062069 15.065747-2.824828 13.653333-2.824827 22.598621c0 9.416092 0.941609 18.361379 2.824827 26.835862 1.883218 8.474483 4.708046 16.007356 8.003679 22.127816 3.766437 6.591264 8.003678 11.29931 13.182528 15.065747 5.178851 3.766437 10.828506 5.649655 16.948966 5.649655 4.237241 0 8.474483-0.941609 12.711724-2.354023 3.766437-1.883218 7.062069-4.708046 9.886896-8.474482s5.178851-8.945287 6.591265-15.536552 2.354023-14.124138 2.354023-24.011035c0-9.416092-0.941609-17.890575-2.824828-26.365057-1.883218-8.474483-4.237241-15.536552-8.003678-21.657012-3.295632-6.12046-7.532874-11.29931-12.711724-14.594942-4.237241-3.766437-10.357701-5.649655-16.478161-5.649655z m150.186667-8.945288c8.945287 0 17.41977 1.883218 24.952643 5.178851 7.532874 3.295632 14.124138 8.474483 19.773793 14.124138 5.649655 6.12046 9.886897 13.182529 13.182529 21.186207 3.295632 8.003678 4.708046 16.948966 4.708046 25.894253 0 6.12046-0.941609 11.770115-2.354023 17.890574-1.412414 5.649655-3.766437 11.770115-6.12046 17.890575-5.649655 12.24092-13.182529 21.186207-23.069425 27.306667-9.886897 6.12046-20.715402 8.945287-32.956322 8.945287-8.945287 0-17.41977-1.883218-24.952643-5.649655-7.532874-3.766437-14.124138-8.474483-19.302989-15.065747-5.178851-6.12046-9.416092-13.653333-12.711724-21.657012s-4.708046-16.948966-4.708046-25.894253c0-12.24092 2.824828-24.011034 8.945287-35.781149 2.824828-5.649655 6.591264-10.828506 10.357701-15.536552 4.237241-4.237241 8.474483-8.003678 13.182529-10.828505s9.416092-5.178851 15.065747-6.591265c5.178851-0.941609 10.357701-1.412414 16.007357-1.412414z m-4.237242 8.945288c-4.237241 0-8.474483 0.941609-12.240919 2.824827-3.766437 1.883218-7.532874 4.708046-10.357701 8.474483s-5.178851 8.945287-7.062069 15.065747-2.824828 13.653333-2.824828 22.598621c0 9.416092 0.941609 18.361379 2.824828 26.835862 1.883218 8.474483 4.708046 16.007356 8.003678 22.127816 3.766437 6.591264 8.003678 11.29931 13.182529 15.065747 5.178851 3.766437 10.828506 5.649655 16.948965 5.649655 4.708046 0 8.474483-0.941609 12.711724-2.354023 3.766437-1.883218 7.062069-4.708046 9.886897-8.474482 2.824828-3.766437 5.178851-8.945287 6.591264-15.536552s2.354023-14.124138 2.354023-24.011035c0-9.416092-0.941609-17.890575-2.824827-26.365057-1.883218-8.474483-4.237241-15.536552-8.003679-21.657012-3.295632-6.12046-7.532874-11.29931-12.711724-14.594942-4.237241-3.766437-9.886897-5.649655-16.478161-5.649655z m125.234023 18.832184l11.299311-11.299311c2.824828-2.824828 4.708046-4.237241 5.649655-5.17885 4.237241-3.766437 8.945287-6.12046 14.124138-8.474483 5.178851-1.883218 9.886897-2.824828 14.594942-2.824828 8.474483 0 15.536552 2.354023 21.186207 7.062069s9.886897 11.770115 11.770115 20.715403c4.708046-5.649655 9.416092-10.357701 13.653333-14.124138 4.237241-3.766437 8.003678-6.591264 11.299311-8.474483s7.062069-3.295632 10.357701-4.237241c3.295632-0.941609 7.062069-0.941609 10.357701-0.94161 4.708046 0 9.416092 0.941609 13.653333 2.354023s7.532874 4.237241 10.828506 8.003679c3.295632 3.766437 5.649655 8.945287 7.532874 15.065747 1.883218 6.12046 2.824828 14.124138 2.824827 23.069425V930.309885c0 4.237241 0 8.003678 0.470805 11.29931 0 3.295632 0.941609 5.649655 2.354023 7.532874 1.412414 1.883218 3.295632 3.295632 5.649655 4.237241 2.824828 0.941609 6.591264 1.412414 11.29931 1.412414v5.178851h-64.500229v-5.178851h2.824827c3.766437 0 6.591264-0.470805 8.945287-0.941609s4.237241-1.883218 5.649656-3.295632c1.412414-1.883218 2.354023-4.237241 2.824827-7.532874s0.941609-7.532874 0.941609-12.711724v-56.025747c0-6.12046-0.470805-11.29931-1.412413-15.536552s-2.354023-7.532874-4.237242-9.886896-4.237241-4.237241-6.591264-5.178851c-2.824828-0.941609-5.649655-1.412414-9.416092-1.412414-2.354023 0-5.178851 0.470805-7.532874 0.941609s-5.178851 1.412414-7.532873 2.824828c-2.824828 1.412414-5.649655 3.295632-8.474483 5.649655-3.295632 2.354023-6.591264 5.178851-9.886897 8.474483V930.309885c0 4.708046 0 8.003678 0.470805 10.828506 0 2.824828 0.470805 4.708046 0.941609 5.649655 0.941609 2.354023 2.824828 3.766437 5.649655 5.649655 2.824828 1.412414 7.532874 2.354023 14.124138 2.354023v5.178851h-65.912643v-5.178851c5.178851 0 8.945287-0.470805 11.770115-0.941609 2.824828-0.470805 5.178851-1.883218 6.591264-3.766437 1.412414-1.883218 2.354023-4.237241 2.354023-7.532873 0.470805-3.295632 0.470805-7.062069 0.470805-11.770115v-56.025747c0-6.12046-0.470805-11.29931-1.412414-15.065748-0.941609-4.237241-2.824828-7.532874-4.708046-9.886896s-4.237241-4.237241-7.062069-5.178851c-2.824828-0.941609-5.649655-1.412414-8.945287-1.412414s-6.12046 0.470805-9.416092 1.883219c-3.295632 0.941609-6.591264 2.824828-9.416092 4.237241-2.824828 1.883218-5.649655 3.766437-8.474483 6.12046-2.354023 2.354023-4.708046 4.237241-6.12046 6.12046v70.149885c0 4.237241 0 8.003678 0.470805 10.357701 0.470805 2.824828 0.470805 4.708046 1.412413 6.12046 0.470805 1.412414 1.412414 2.824828 2.354023 3.295632 0.941609 0.941609 1.883218 1.412414 3.295633 2.354023 2.354023 1.412414 7.062069 1.883218 14.124138 1.883218v5.178851h-64.50023v-5.178851c4.708046 0 8.003678-0.470805 10.828505-0.941609 2.824828-0.941609 4.708046-1.883218 6.12046-3.766437 1.412414-1.883218 2.354023-4.237241 2.824828-7.532873 0.470805-3.295632 0.470805-7.062069 0.470804-11.770115v-49.905288c0-8.474483 0-15.065747-0.470804-19.773793s-0.941609-8.474483-1.412414-10.828505c-0.941609-2.354023-1.883218-3.766437-3.295632-4.708046-1.412414-0.470805-2.824828-0.941609-5.178851-0.94161-2.824828 0-6.12046 0.941609-9.886896 2.354023l-1.883219-5.17885 39.076782-16.007356h6.12046v26.835862h-1.883219z m240.110345-76.270345v76.270345h42.372414c6.12046 0 11.29931-0.470805 15.065747-1.412414 3.766437-0.941609 7.062069-2.824828 8.945287-5.178851 2.354023-2.354023 3.766437-5.178851 4.708046-8.474482 0.941609-3.295632 1.412414-7.532874 1.412414-12.711725h5.178851v67.325058H827.203678c-0.941609-5.178851-1.412414-9.886897-2.354023-13.653333s-2.354023-6.591264-4.237241-8.945288-4.708046-3.766437-8.474483-4.708046-8.474483-1.412414-15.065747-1.412414h-42.372414v63.558621c0 8.474483 0.470805 13.653333 0.941609 15.536552 0.470805 0.941609 0.941609 1.883218 1.412414 2.354023 0.470805 0.941609 1.412414 1.412414 2.824828 1.883218 0.941609 0.470805 2.354023 0.941609 4.237241 1.412414s3.766437 0.470805 6.591264 0.470805h32.956322c5.649655 0 10.357701 0 14.124138-0.470805 3.766437-0.470805 7.062069-0.941609 9.886897-1.883218s5.178851-1.883218 7.532873-3.295633c2.354023-1.412414 4.708046-3.295632 7.062069-5.649655 5.649655-5.649655 11.770115-14.594943 17.890575-26.365057h5.649655l-16.948965 48.492873h-148.774253v-5.17885h6.591264c1.883218 0 3.766437 0 5.649655-0.470805 1.883218-0.470805 3.766437-0.941609 5.649655-1.883218 1.883218-0.941609 3.295632-1.883218 4.708046-3.295632 1.412414-1.412414 2.354023-2.824828 3.295633-4.708046 0.941609-2.824828 1.883218-9.416092 1.883218-18.832184v-125.234023c0-6.12046-0.470805-10.828506-0.941609-15.065747-0.470805-3.766437-1.412414-6.591264-2.824828-8.003679-3.295632-3.766437-8.945287-5.649655-17.41977-5.649655h-6.591264v-5.17885h148.774253v42.372413h-3.295633c-1.412414-7.062069-2.824828-12.711724-4.237241-16.948965-1.412414-4.237241-3.766437-7.532874-6.591264-9.886897-2.824828-2.354023-6.12046-3.766437-10.357701-4.237241s-9.416092-0.941609-16.007357-0.941609H754.69977z m119.113563 52.25931h60.733793v5.178851h-2.824827c-4.237241 0-7.532874 0.941609-9.886897 2.824827s-3.295632 4.237241-3.295632 7.062069c0 3.766437 1.412414 8.945287 4.708046 15.536552l31.543908 65.912644 29.189885-72.033104c1.412414-4.237241 2.354023-8.003678 2.354023-11.770115 0-0.941609 0-1.883218-0.470804-2.824827s-0.941609-1.412414-1.883219-2.354023c-0.941609-0.470805-2.354023-0.941609-3.766437-1.412414-1.883218-0.470805-4.237241-0.470805-7.062069-0.470805v-5.17885h42.372414v5.17885c-2.354023 0-4.237241 0.470805-6.12046 0.94161-1.412414 0.470805-3.295632 1.412414-4.708046 2.824827-1.412414 1.412414-2.824828 3.295632-4.237241 5.649655s-2.824828 6.12046-4.708046 10.357701l-53.200919 130.412874c-2.354023 6.12046-5.649655 11.770115-8.945288 16.478161s-7.062069 8.945287-11.29931 12.240919c-3.766437 3.295632-8.003678 5.649655-12.24092 7.532874-4.237241 1.883218-8.003678 2.354023-11.770115 2.354023-2.824828 0-5.178851-0.470805-7.532873-1.412414s-4.237241-1.883218-6.12046-3.295632c-1.883218-1.412414-2.824828-3.295632-3.766437-5.178851-0.941609-1.883218-1.412414-3.766437-1.412413-6.120459 0-4.237241 1.412414-7.062069 3.766436-9.886897 2.824828-2.354023 6.12046-3.766437 10.828506-3.766437 0.941609 0 2.354023 0.470805 4.708046 0.94161 1.883218 0.470805 4.237241 1.412414 6.12046 1.883218 2.354023 0.470805 4.237241 1.412414 5.649655 1.883218 1.883218 0.470805 2.824828 0.941609 3.295632 0.94161 1.412414 0 2.824828-0.470805 4.708046-0.94161 1.412414-0.470805 3.295632-1.883218 4.708046-3.295632 1.412414-1.412414 3.295632-3.766437 5.178851-6.591264 1.883218-2.824828 3.295632-6.12046 5.17885-10.357701l9.416092-22.598621-47.08046-98.398161c-0.470805-0.941609-1.412414-2.354023-2.354023-4.237241s-2.354023-3.766437-3.295632-5.178851c-1.412414-1.883218-2.354023-3.295632-3.766437-4.708046s-2.354023-2.824828-3.295632-3.295632c-1.883218-1.412414-5.649655-2.824828-10.357701-3.766437v-7.062069h0.941609zM1137.463908 837.561379c-63.087816 0-100.752184 63.087816-100.752184 63.087816s31.543908 75.328736 100.752184 75.799541c69.208276 0.470805 100.752184-75.79954 100.752184-75.799541s-37.664368-63.087816-100.752184-63.087816z m0 119.584368c-45.197241-0.470805-75.79954-56.025747-75.79954-56.025747s30.131494-44.726437 75.79954-44.726437 75.79954 44.726437 75.79954 44.726437-30.602299 56.496552-75.79954 56.025747z m0-81.92a31.543908 31.543908 0 1 0 0 63.087816 31.543908 31.543908 0 0 0 0-63.087816z" fill="#01ACFE" p-id="9671"></path></svg>